<svg width="84" height="100" viewBox="0 0 84 100" fill="none" xmlns="http://www.w3.org/2000/svg">
<path d="M76.6088 100C75.7244 100 74.8402 99.723 74.0921 99.1673L55.202 85.1507C48.1318 79.9048 39.3828 77.0143 30.5677 77.0143C26.4733 77.0143 22.413 77.6196 18.5004 78.816L6.32967 82.5289C5.84785 82.6755 5.35253 82.7521 4.86141 82.7521C3.07743 82.7521 1.43776 81.7541 0.581273 80.1468C-0.255564 78.6241 -0.189414 76.779 0.783515 75.2564L7.59275 64.5477C14.5877 53.5517 15.9269 39.744 11.1753 27.6096L2.61505 5.77694C1.92677 4.02069 2.48296 2.0186 3.98018 0.871887C4.73756 0.291337 5.64351 0 6.54945 0C7.43384 0 8.31802 0.276947 9.0661 0.832744L27.9562 14.8493C35.0254 20.0952 43.7754 22.9836 52.5937 22.9836C56.6849 22.9836 60.7452 22.3783 64.6602 21.1839L76.8277 17.469C77.3478 17.316 77.8266 17.2458 78.2949 17.2458C80.0789 17.2458 81.7207 18.2459 82.5772 19.8532C83.4098 21.3676 83.3479 23.2066 82.3863 24.7271L75.5649 35.4523C68.5699 46.4461 67.2315 60.2541 71.9844 72.3883L80.5436 94.2231C81.2319 95.9793 80.6757 97.9814 79.1785 99.1281C78.4211 99.7087 77.5147 100 76.6088 100Z" fill="url(#paint0_linear_510_605)"/>
<defs>
<linearGradient id="paint0_linear_510_605" x1="-1.51458e-05" y1="50" x2="83.1579" y2="50" gradientUnits="userSpaceOnUse">
<stop stop-color="#2DAFEC"/>
<stop offset="1" stop-color="#386DDC"/>
</linearGradient>
</defs>
</svg>
